<?xml version="1.0" standalone="no"?>
<!DOCTYPE svg PUBLIC "-//W3C//DTD SVG 20010904//EN"
 "http://www.w3.org/TR/2001/REC-SVG-20010904/DTD/svg10.dtd">
<svg version="1.0" xmlns="http://www.w3.org/2000/svg"
 width="500.000000pt" height="500.000000pt" viewBox="0 0 500.000000 500.000000"
 preserveAspectRatio="xMidYMid meet">

<g transform="translate(0.000000,500.000000) scale(0.100000,-0.100000)"
fill="#000000" stroke="none">
<path d="M3302 4850 c-100 -72 -131 -167 -247 -745 -93 -463 -196 -950 -259
-1225 -13 -58 -36 -157 -51 -220 -14 -63 -30 -131 -35 -150 -5 -19 -21 -82
-35 -140 -31 -124 -77 -262 -100 -296 -19 -30 -60 -47 -88 -38 -48 15 -93 102
-162 308 -57 169 -91 311 -111 461 -18 140 -14 222 22 402 36 185 31 259 -23
316 -130 136 -363 81 -517 -124 -163 -217 -224 -569 -150 -864 17 -68 99 -315
120 -360 7 -16 34 -84 59 -150 25 -66 49 -129 55 -140 5 -11 48 -119 95 -240
47 -121 97 -245 110 -275 12 -30 60 -156 105 -280 150 -409 171 -464 220 -568
62 -130 96 -173 162 -204 75 -36 111 -42 168 -28 68 16 123 73 173 178 58 124
83 204 138 447 54 240 90 388 138 565 72 269 141 545 187 755 8 39 19 86 24
105 30 116 141 660 181 890 11 63 75 464 89 560 60 400 75 771 36 903 -20 65
-66 131 -115 164 -52 35 -135 32 -189 -7z"/>
</g>
</svg>
